<?xml version="1.0" encoding="UTF-8"?>
<svg width="256px" height="256px" viewBox="0 0 256 256" version="1.1" xmlns="http://www.w3.org/2000/svg">
    <g fill="none">
        <rect fill="#001E36" x="0" y="0" width="256" height="256" rx="28"/>
        <path d="M96.5,119.125 L96.5,142.375 L106.5,142.375 C113.675,142.375 119.5,136.55 119.5,129.375 C119.5,122.2 113.675,116.375 106.5,116.375 L96.5,116.375 L96.5,119.125 Z M96.5,91.375 L96.5,106.375 L106.5,106.375 C111.747,106.375 116,102.122 116,96.875 C116,91.628 111.747,87.375 106.5,87.375 L96.5,87.375 L96.5,91.375 Z M76.5,77.375 L106.5,77.375 C117.27,77.375 126,86.105 126,96.875 C126,103.699 122.513,109.716 117.188,113.125 C126.825,116.534 134,125.847 134,136.875 C134,147.645 125.27,156.375 114.5,156.375 L76.5,156.375 L76.5,77.375 Z M159.5,117.375 C150.94,117.375 144,124.315 144,132.875 C144,141.435 150.94,148.375 159.5,148.375 C168.06,148.375 175,141.435 175,132.875 C175,124.315 168.06,117.375 159.5,117.375 Z M159.5,107.375 C173.583,107.375 185,118.792 185,132.875 C185,146.958 173.583,158.375 159.5,158.375 C145.417,158.375 134,146.958 134,132.875 C134,118.792 145.417,107.375 159.5,107.375 Z" fill="#31A8FF"/>
    </g>
</svg> 